<svg xmlns="http://www.w3.org/2000/svg" xmlns:xlink="http://www.w3.org/1999/xlink" preserveAspectRatio="xMidYMid meet" version="1.0" viewBox="-2.2 2.1 475.8 346.4" zoomAndPan="magnify" style="fill: rgb(0, 0, 0);" original_string_length="3443"><g id="__id108_s7n5wsg1u"><path d="M473.5,197c0,1.7-0.1,3.5-0.2,5.2c-0.2,3.5-0.5,6.9-0.9,10.3c-1.3,10.3-3.7,20.3-7.2,29.8 c-10.1,27.8-29,52-54.3,68.5c-4.7,3-9.6,5.7-14.6,8.3c-14.2,7.4-29.4,13.3-45.6,17.6c-44.3,11.7-89,9.1-129.2-5v-0.1 c-51.4-18-95.3-54.6-121.8-104c0-0.1-0.1-0.2-0.1-0.3c-0.8-1.5-1.6-3-2.3-4.5c-0.1-0.3-0.3-0.6-0.4-0.9c-0.7-1.3-1.3-2.6-1.9-4 c-0.2-0.5-0.5-1-0.7-1.5c-0.5-1.1-1-2.3-1.6-3.5c-0.3-0.7-0.6-1.4-0.9-2.1c-0.4-1-0.8-1.9-1.2-2.9c-0.4-0.9-0.7-1.7-1.1-2.6h-0.2 c0,0,0,0,0,0c-3.4-8.4-6.2-17.1-8.6-26.1c-5.4-20.5-7.7-41-7.3-61.2C40.4,114.3,11.7,90.9,2.8,57c-5-18.6-3.2-37.5,4-53.9 c0.4-1,1.9-0.9,2.2,0.1c9.1,34.5,37.6,51.4,71,54.6c7.1,0.7,14.4,0.5,21.7-0.7c2.5-0.4,5.1-0.9,7.6-1.6c22.6-6,41.4-14,52-32.7 c0.9-1.6,3.3-1.2,3.6,0.6c6.3,41.4-19.5,81.7-60.8,92.6c-1.8,0.5-3.7,0.9-5.5,1.3c0,0,0,0,0,0c0.7,6.3,1.9,12.7,3.6,19 c6.4,23.9,18.6,44.8,34.8,61.2c0.1,0,0.1,0,0.2,0c0,0,0,0,0.1,0.1c30.8-10.8,55.7-31.7,71.8-57.8c0-0.1,0.1-0.2,0.1-0.3 c1.2-2.9,2.6-5.7,4-8.5s3-5.5,4.7-8.2c0,0,0,0,0-0.1c8.4-13.7,19.2-25.9,31.9-36c2.6-2,5.2-4,7.9-5.8c1.8-1.2,3.6-2.4,5.5-3.6 c2.8-1.7,5.7-3.4,8.6-4.9c2-1,4-2,6-2.9c7.1-3.3,14.6-5.9,22.4-8c11.5-3,23.1-4.5,34.4-4.6c2.9,0,5.9,0.1,8.8,0.2 c8.4,0.5,16.6,1.7,24.6,3.7c11.1,2.7,21.8,6.8,31.9,12.1c1.2,0.6,2.4,1.3,3.6,2c8.2,4.6,15.9,10.1,22.9,16.3c2.8,2.5,5.6,5,8.2,7.7 c0,0,0,0,0,0c2.7,2.8,5.3,5.7,7.8,8.8c0.9,1.1,1.7,2.1,2.5,3.2c1.1,1.4,2.1,2.8,3.2,4.3c1,1.4,1.9,2.7,2.8,4.2 c2.8,4.3,5.5,8.8,7.8,13.5c0.7,1.4,1.4,2.8,2.1,4.3c1.3,2.9,2.6,5.8,3.7,8.8c1.7,4.5,3.2,9.1,4.5,13.9c2.3,8.9,3.8,17.8,4.3,26.7 C473.5,190,473.6,193.5,473.5,197z" style="fill: rgb(102, 135, 255);"/></g><g id="__id109_s7n5wsg1u"><path d="M203.2,235.3c-25.1-6.1-48.2-19.2-66.2-37.7c30.9-10.8,55.9-31.8,72-58.1c-12.2,27.6-15.5,59.5-7.2,90.9 C202.2,232.1,202.7,233.7,203.2,235.3z M136.9,197.6C136.9,197.6,136.9,197.6,136.9,197.6c-16.2-16.5-28.4-37.4-34.8-61.3 c-1.7-6.3-2.9-12.7-3.6-19c0,0,0,0,0,0c1.8-0.4,3.7-0.8,5.5-1.3c41.4-10.9,67.1-51.2,60.8-92.6c-0.3-1.8-2.7-2.2-3.6-0.6 c-10.6,18.8-29.4,26.7-52,32.7c-2.5,0.7-5.1,1.2-7.6,1.6c-7.3,1.2-14.6,1.4-21.7,0.7C46.6,54.6,18.1,37.7,9,3.2l0,0 C8.7,2.1,7.2,2.1,6.8,3.1c-7.1,16.4-9,35.3-4,53.9c8.9,33.9,37.6,57.3,70.4,61.2l0,0c-0.4,20.2,1.9,40.7,7.3,61.2 c2.4,9,5.2,17.7,8.6,26.1c0,0,0,0,0,0c12.3,0.2,24.9-1.3,37.3-4.6C130,199.9,133.5,198.8,136.9,197.6z" style="fill: rgb(160, 181, 255);"/></g><g id="__id110_s7n5wsg1u"><path d="M465.2,242.4c-10.1,27.8-29,52-54.3,68.5c-4.7,3-9.6,5.7-14.6,8.3c-14.2,7.4-29.4,13.3-45.6,17.6 c-44.3,11.7-89,9.1-129.2-5c0-16.4,2.9-32.3,8.3-47.3c6.4-17.5,16.3-33.6,29-47.2c17.1-18.4,39.5-32.3,65.6-39.1 c4-1.1,8.1-1.9,12.1-2.6C385.8,187.1,434.4,206,465.2,242.4z" style="fill: rgb(180, 198, 255);"/></g><g id="__id111_s7n5wsg1u"><path d="M436.7,173c0,4.5-3.6,8.1-8.1,8.1s-8.1-3.6-8.1-8.1s3.6-8.1,8.1-8.1S436.7,168.5,436.7,173z M274.5,166.8 c-4.5,0-8.1,3.6-8.1,8.1s3.6,8.1,8.1,8.1s8.1-3.6,8.1-8.1C282.6,170.4,279,166.8,274.5,166.8z M345,174.9c0,7.4,6,13.5,13.5,13.5 s13.5-6,13.5-13.5H345z" style="fill: rgb(255, 255, 255);"/></g><g id="__id112_s7n5wsg1u"><path d="M203.2,235.2c-0.5-1.6-1-3.1-1.4-4.8c-3.1-11.8-4.6-23.7-4.6-35.4c0,11.6,1.5,23.5,4.6,35.3 C202.3,232,202.7,233.6,203.2,235.2C203.2,235.2,203.2,235.2,203.2,235.2z M242,259.4c4.5-7.4,9.8-14.3,15.6-20.8 C251.8,245,246.5,252,242,259.4z" style="fill: rgb(180, 198, 255);"/></g></svg>